<svg xmlns="http://www.w3.org/2000/svg" viewBox="0 0 1260 120" width="100%" height="100%" role="img" aria-labelledby="cti-title cti-desc">
  <title id="cti-title">The six-stage cyber threat intelligence lifecycle</title>
  <desc id="cti-desc">Six stages in order: planning and direction driven by priority intelligence requirements, collection, processing and parsing, analysis and production, dissemination, and feedback and evaluation, which returns to planning.</desc>
  <rect width="1260" height="120" fill="#ffffff"/>
  <style>
    .stage { fill: #dbeafe; stroke: #1d4ed8; stroke-width: 2; }
    .st { font-family: ui-monospace, SFMono-Regular, Menlo, monospace; font-size: 12px; fill: #0f172a; text-anchor: middle; font-weight: 600; }
    .arrow { stroke: #1d4ed8; stroke-width: 2; }
    .arrowhead { fill: #1d4ed8; }
  </style>

  <rect x="20" y="34" width="180" height="44" rx="6" class="stage"/>
  <text x="110" y="53" class="st">1. Planning</text>
  <text x="110" y="69" class="st">&amp; Direction (PIRs)</text>

  <rect x="230" y="34" width="180" height="44" rx="6" class="stage"/>
  <text x="320" y="61" class="st">2. Collection</text>

  <rect x="440" y="34" width="180" height="44" rx="6" class="stage"/>
  <text x="530" y="53" class="st">3. Processing</text>
  <text x="530" y="69" class="st">&amp; Parsing</text>

  <rect x="650" y="34" width="180" height="44" rx="6" class="stage"/>
  <text x="740" y="53" class="st">4. Analysis</text>
  <text x="740" y="69" class="st">&amp; Production</text>

  <rect x="860" y="34" width="180" height="44" rx="6" class="stage"/>
  <text x="950" y="61" class="st">5. Dissemination</text>

  <rect x="1070" y="34" width="180" height="44" rx="6" class="stage"/>
  <text x="1160" y="53" class="st">6. Feedback</text>
  <text x="1160" y="69" class="st">&amp; Evaluation</text>

  <line x1="204" y1="56" x2="222" y2="56" class="arrow"/><polygon points="222,52 230,56 222,60" class="arrowhead"/>
  <line x1="414" y1="56" x2="432" y2="56" class="arrow"/><polygon points="432,52 440,56 432,60" class="arrowhead"/>
  <line x1="624" y1="56" x2="642" y2="56" class="arrow"/><polygon points="642,52 650,56 642,60" class="arrowhead"/>
  <line x1="834" y1="56" x2="852" y2="56" class="arrow"/><polygon points="852,52 860,56 852,60" class="arrowhead"/>
  <line x1="1044" y1="56" x2="1062" y2="56" class="arrow"/><polygon points="1062,52 1070,56 1062,60" class="arrowhead"/>
</svg>
